<?xml version="1.0" encoding="utf-8"?>
<!-- Generator: Adobe Illustrator 23.0.2, SVG Export Plug-In . SVG Version: 6.00 Build 0)  -->
<svg version="1.1" id="Layer_1" xmlns="http://www.w3.org/2000/svg" xmlns:xlink="http://www.w3.org/1999/xlink" x="0px" y="0px"
	 viewBox="0 0 653 190" style="enable-background:new 0 0 653 190;" xml:space="preserve">
<style type="text/css">
	.st0{fill:#FFFFFF;}
</style>
<g id="Page-1">
	<g id="bitdegree_v2">
		<path id="Shape" class="st0" d="M0.6,2.9v131.5l67.5,45l67.5-45V2.9H0.6z M120.6,126.4l-52.5,35l-52.5-35V84.9h18.8v32.3
			c0,0.9,0.3,1.6,1,2.3c0.6,0.6,1.4,1,2.3,1h38.2c4.2,0,8-0.7,11.2-2.2c3.2-1.5,5.9-3.4,8.1-5.8c2.2-2.4,3.8-5.1,4.9-8.1
			s1.7-6,1.7-9.1c0-4.7-1-8.6-3.1-11.7c-2.1-3.1-4.4-5.5-6.8-7.1c0.6-0.3,1.3-0.9,2.2-1.8c0.9-0.9,1.8-2,2.8-3.3
			c0.9-1.3,1.7-2.9,2.3-4.8c0.6-1.9,1-4,1-6.4c0-2.4-0.5-5-1.4-7.7c-0.9-2.8-2.4-5.3-4.5-7.7c-2.1-2.4-4.8-4.3-8.3-5.9
			c-3.4-1.6-7.7-2.3-12.8-2.3H37.7c-0.9,0-1.6,0.3-2.3,1c-0.6,0.6-1,1.4-1,2.3v30.2H15.6v-52h105V126.4z M54.1,84.9h18.8
			c4.2,0,7.4,1,9.5,2.9c2.1,1.9,3.2,4.4,3.2,7.4s-1,5.5-3.1,7.4c-2,1.9-5.3,2.8-9.7,2.8H50.7V84.9H54.1z M50.7,69.9V51.4h21.2
			c4.2,0,7.2,0.8,9.1,2.3c1.9,1.6,2.9,3.9,2.9,6.9s-1,5.3-2.9,6.9s-5,2.3-9.1,2.3H54.1L50.7,69.9L50.7,69.9z M196.8,114.8
			c-0.8,0-1.4-0.3-2-0.8c-0.6-0.6-0.8-1.2-0.8-2V44.8c0-0.8,0.3-1.4,0.8-2c0.6-0.6,1.2-0.8,2-0.8h30.7c4.4,0,8.1,0.7,11.1,2
			c3,1.4,5.4,3.1,7.2,5.1s3.1,4.3,3.9,6.7c0.8,2.4,1.2,4.6,1.2,6.7s-0.3,3.9-0.8,5.6c-0.6,1.6-1.2,3-2,4.2c-0.8,1.1-1.6,2.1-2.4,2.9
			c-0.8,0.8-1.4,1.3-1.9,1.6c2.1,1.5,4.1,3.5,5.9,6.2s2.7,6.1,2.7,10.1c0,2.6-0.5,5.3-1.5,7.9s-2.4,4.9-4.3,7c-1.9,2.1-4.2,3.8-7,5
			c-2.8,1.3-6.1,1.9-9.7,1.9L196.8,114.8L196.8,114.8z M236.8,63c0-2.6-0.8-4.6-2.5-6s-4.3-2-7.9-2H208v16h18.4c3.6,0,6.2-0.7,7.9-2
			C236,67.6,236.8,65.6,236.8,63z M208,101.8h19.2c3.8,0,6.6-0.8,8.4-2.4c1.8-1.6,2.7-3.8,2.7-6.4s-0.9-4.8-2.8-6.4
			c-1.8-1.7-4.6-2.5-8.3-2.5H208V101.8z M271.5,41c0.8,0,1.4,0.3,2,0.8c0.6,0.6,0.8,1.2,0.8,2v8.1c0,0.8-0.3,1.4-0.8,2
			c-0.6,0.6-1.2,0.8-2,0.8h-8.9c-0.8,0-1.4-0.3-2-0.8c-0.6-0.6-0.8-1.2-0.8-2v-8.1c0-0.8,0.3-1.4,0.8-2c0.6-0.6,1.2-0.8,2-0.8H271.5
			z M273.8,112c0,0.8-0.3,1.4-0.8,2c-0.6,0.6-1.2,0.8-2,0.8h-8c-0.8,0-1.4-0.3-2-0.8c-0.6-0.6-0.8-1.2-0.8-2V63.5
			c0-0.8,0.3-1.4,0.8-2c0.6-0.6,1.2-0.8,2-0.8h7.9c0.8,0,1.4,0.3,2,0.8c0.6,0.6,0.8,1.2,0.8,2L273.8,112L273.8,112z M302.1,95.2
			c0,2.1,0.6,3.9,1.7,5.1c1.1,1.3,3.3,1.9,6.4,1.9h6.3c0.8,0,1.4,0.3,2,0.8c0.6,0.6,0.8,1.2,0.8,2v6.9c0,0.8-0.3,1.4-0.8,2
			c-0.6,0.6-1.2,0.8-2,0.8h-7.7c-6.5,0-11.5-1.6-15-4.7c-3.5-3.2-5.3-8-5.3-14.5V73.2h-6.9c-0.8,0-1.4-0.3-2-0.8
			c-0.6-0.6-0.8-1.2-0.8-2v-6.9c0-0.8,0.3-1.4,0.8-2c0.6-0.6,1.2-0.8,2-0.8h6.9v-17c0-0.8,0.3-1.4,0.8-2c0.5-0.6,1.2-0.8,2-0.8h7.9
			c0.8,0,1.4,0.3,2,0.8c0.6,0.6,0.8,1.2,0.8,2v17h13.4c0.8,0,1.4,0.3,2,0.8c0.6,0.6,0.8,1.2,0.8,2v6.9c0,0.8-0.3,1.4-0.8,2
			c-0.6,0.6-1.2,0.8-2,0.8H302v22H302.1z M354.9,42c5.1,0,9.6,0.7,13.4,2c3.8,1.4,6.9,3.3,9.5,5.8c2.5,2.5,4.5,5.5,5.8,9
			c1.4,3.5,2.2,7.5,2.4,11.9c0.3,5.1,0.3,10.3,0,15.4c-0.3,4.4-1.1,8.3-2.4,11.9c-1.4,3.5-3.3,6.6-5.8,9c-2.5,2.5-5.6,4.4-9.3,5.8
			c-3.7,1.4-8.1,2-13.1,2h-26.2c-0.8,0-1.4-0.3-2-0.8c-0.6-0.6-0.8-1.2-0.8-2V44.8c0-0.8,0.3-1.4,0.8-2c0.6-0.6,1.2-0.8,2-0.8H354.9
			z M371.9,70.7c-0.1-2.2-0.6-4.3-1.3-6.2c-0.7-1.9-1.8-3.6-3.2-5s-3.2-2.5-5.4-3.3c-2.1-0.8-4.7-1.2-7.7-1.2h-13.9v46.8h14.5
			c2.8,0,5.3-0.4,7.4-1.2c2.1-0.8,3.8-1.9,5.2-3.3c1.4-1.4,2.4-3,3.2-5c0.7-1.9,1.2-4,1.3-6.2C372.2,81,372.2,75.8,371.9,70.7z
			 M391.8,87.8c0-3.9,0.6-7.5,1.8-11c1.2-3.4,2.9-6.4,5.1-8.9c2.2-2.5,4.9-4.5,8.1-6c3.2-1.5,6.7-2.2,10.6-2.2s7.4,0.7,10.6,2.1
			c3.2,1.4,5.8,3.3,8.1,5.7c2.2,2.4,3.9,5.2,5.1,8.4c1.2,3.2,1.8,6.6,1.8,10.1v4.7c0,0.8-0.3,1.4-0.8,2c-0.6,0.6-1.2,0.8-2,0.8
			h-34.7c0,1.6,0.3,3,1,4.2c0.7,1.2,1.5,2.2,2.7,3.1c1.1,0.8,2.4,1.5,3.8,1.9c1.5,0.4,2.9,0.6,4.5,0.6c2.2,0,4-0.2,5.4-0.7
			s2.5-1,3.4-1.7c0.8-0.6,1.4-0.9,1.9-1.1c0.5-0.2,1.1-0.3,2-0.3h8.3c0.8,0,1.4,0.3,2,0.8c0.6,0.6,0.9,1.2,0.8,2
			c-0.1,1-0.6,2.2-1.6,3.7s-2.5,3-4.5,4.5s-4.5,2.7-7.4,3.7c-2.9,1-6.4,1.6-10.2,1.6c-3.9,0-7.4-0.7-10.6-2
			c-3.1-1.4-5.8-3.3-8.1-5.8c-2.2-2.5-3.9-5.5-5.1-8.9C392.4,95.7,391.8,91.9,391.8,87.8z M417.3,72.2c-2,0-3.7,0.3-5.1,0.9
			c-1.4,0.6-2.6,1.4-3.6,2.3s-1.7,2-2.2,3.1s-0.9,2.2-1,3.3h23.5c-0.1-1-0.4-2.1-0.8-3.3c-0.4-1.1-1-2.2-1.9-3.1
			c-0.9-0.9-2-1.7-3.4-2.3C421.3,72.5,419.5,72.2,417.3,72.2z M473.6,125.2c1.5,0,2.9-0.2,4.5-0.7c1.5-0.5,2.9-1.2,4.2-2.1
			c1.2-1,2.3-2.2,3.1-3.7c0.8-1.5,1.2-3.2,1.2-5.2v-3.9c-0.6,0.6-1.3,1.3-2.2,2c-0.9,0.7-2,1.4-3.3,2c-1.3,0.6-2.8,1.1-4.5,1.6
			c-1.7,0.4-3.6,0.6-5.8,0.6c-3.5,0-6.6-0.7-9.4-2c-2.8-1.4-5.2-3.2-7.2-5.4c-2-2.2-3.5-4.9-4.7-7.8c-1.1-2.9-1.8-6-1.9-9.2
			c-0.1-1-0.1-2.3-0.1-3.6c0-1.4,0-2.6,0.1-3.6c0.1-3.2,0.8-6.3,1.9-9.2s2.7-5.5,4.7-7.8c2-2.3,4.4-4.1,7.2-5.4c2.8-1.4,5.9-2,9.4-2
			c2.1,0,4.1,0.2,5.8,0.6c1.7,0.4,3.2,0.9,4.5,1.6c1.3,0.6,2.4,1.3,3.3,2c0.9,0.7,1.6,1.4,2.2,2v-2.5c0-0.8,0.3-1.4,0.8-2
			c0.6-0.6,1.2-0.8,2-0.8h7.9c0.8,0,1.4,0.3,2,0.8c0.6,0.6,0.8,1.2,0.8,2v48.8c0,8.4-2.3,14.7-7,19c-4.7,4.3-11.1,6.4-19.4,6.4
			c-3.5,0-6.8-0.5-9.8-1.4c-3-0.9-5.6-2.2-7.9-3.7c-2.2-1.6-4-3.3-5.3-5.3c-1.3-2-2-4-2.2-6.1c-0.1-0.8,0.2-1.4,0.8-2
			c0.6-0.6,1.3-0.8,2-0.8h7.1c1,0,1.8,0.3,2.5,1c0.7,0.7,1.3,1.3,1.8,1.8c0.9,1.2,2.1,2.1,3.7,2.9
			C467.9,124.8,470.3,125.2,473.6,125.2z M461.2,84.8c-0.2,1.9-0.2,3.9,0,5.8c0.4,4.5,1.8,7.7,4.2,9.7s5.2,3,8.6,3s6.2-1,8.6-3
			c2.3-2,3.7-4.9,4-8.6c0.1-1,0.2-2.4,0.2-4c0-1.6-0.1-2.9-0.2-4c-0.3-3.6-1.7-6.4-4-8.5c-2.3-2.1-5.2-3.1-8.6-3.1s-6.3,1-8.6,3
			C463,77.1,461.6,80.3,461.2,84.8z M535.5,73.2c-4.2,0-7.2,0.9-9,2.8c-1.8,1.8-2.8,4.8-2.8,9v27c0,0.8-0.3,1.4-0.8,2
			c-0.6,0.6-1.2,0.8-2,0.8H513c-0.8,0-1.4-0.3-2-0.8c-0.6-0.6-0.8-1.2-0.8-2V63.5c0-0.8,0.3-1.4,0.8-2c0.6-0.6,1.2-0.8,2-0.8h7.9
			c0.8,0,1.4,0.3,2,0.8c0.6,0.6,0.8,1.2,0.8,2v2.4c1.8-1.7,3.7-2.9,5.8-3.8c2-0.9,4.7-1.4,8.1-1.4h4.7c0.8,0,1.4,0.3,2,0.8
			c0.6,0.6,0.8,1.2,0.8,2v6.9c0,0.8-0.3,1.4-0.8,2c-0.6,0.6-1.2,0.8-2,0.8H535.5z M546,87.8c0-3.9,0.6-7.5,1.8-11
			c1.2-3.4,2.9-6.4,5.1-8.9c2.2-2.5,4.9-4.5,8.1-6s6.7-2.2,10.6-2.2c3.9,0,7.4,0.7,10.6,2.1c3.2,1.4,5.8,3.3,8.1,5.7
			c2.2,2.4,3.9,5.2,5.1,8.4c1.2,3.2,1.8,6.6,1.8,10.1v4.7c0,0.8-0.3,1.4-0.8,2c-0.6,0.6-1.2,0.8-2,0.8h-34.7c0,1.6,0.3,3,1,4.2
			c0.7,1.2,1.5,2.2,2.6,3.1c1.1,0.8,2.4,1.5,3.9,1.9c1.5,0.4,2.9,0.6,4.5,0.6c2.2,0,4-0.2,5.4-0.7c1.4-0.5,2.5-1,3.4-1.7
			c0.8-0.6,1.4-0.9,1.9-1.1c0.5-0.2,1.1-0.3,2-0.3h8.3c0.8,0,1.4,0.3,2,0.8c0.6,0.6,0.8,1.2,0.8,2c-0.1,1-0.6,2.2-1.6,3.7
			s-2.5,3-4.5,4.5s-4.5,2.7-7.4,3.7s-6.4,1.6-10.2,1.6c-3.9,0-7.4-0.7-10.6-2c-3.2-1.4-5.8-3.3-8.1-5.8c-2.2-2.5-3.9-5.5-5.1-8.9
			C546.6,95.7,546,91.9,546,87.8z M571.5,72.2c-2,0-3.7,0.3-5.1,0.9c-1.4,0.6-2.6,1.4-3.6,2.3s-1.7,2-2.2,3.1s-0.9,2.2-1,3.3H583
			c-0.1-1-0.4-2.1-0.8-3.3c-0.4-1.1-1-2.2-1.9-3.1c-0.9-0.9-2-1.7-3.4-2.3C575.5,72.5,573.7,72.2,571.5,72.2z M601.5,87.8
			c0-3.9,0.6-7.5,1.8-11c1.2-3.4,2.9-6.4,5.1-8.9c2.2-2.5,4.9-4.5,8.1-6s6.7-2.2,10.6-2.2c3.9,0,7.4,0.7,10.6,2.1
			c3.2,1.4,5.8,3.3,8.1,5.7c2.2,2.4,3.9,5.2,5.1,8.4c1.2,3.2,1.8,6.6,1.8,10.1v4.7c0,0.8-0.3,1.4-0.8,2c-0.6,0.6-1.2,0.8-2,0.8
			h-34.7c0,1.6,0.3,3,1,4.2c0.7,1.2,1.5,2.2,2.7,3.1c1.1,0.8,2.4,1.5,3.8,1.9c1.5,0.4,2.9,0.6,4.5,0.6c2.2,0,4-0.2,5.4-0.7
			c1.4-0.5,2.5-1,3.4-1.7c0.8-0.6,1.4-0.9,1.9-1.1c0.5-0.2,1.1-0.3,2-0.3h8.3c0.8,0,1.4,0.3,2,0.8c0.6,0.6,0.9,1.2,0.8,2
			c-0.1,1-0.6,2.2-1.6,3.7s-2.5,3-4.5,4.5s-4.5,2.7-7.4,3.7s-6.4,1.6-10.2,1.6c-3.9,0-7.4-0.7-10.6-2c-3.1-1.4-5.8-3.3-8.1-5.8
			c-2.3-2.5-3.9-5.5-5.1-8.9C602.1,95.7,601.5,91.9,601.5,87.8z M627,72.2c-2,0-3.7,0.3-5.1,0.9c-1.4,0.6-2.6,1.4-3.6,2.3
			s-1.7,2-2.2,3.1s-0.9,2.2-1,3.3h23.5c-0.1-1-0.4-2.1-0.8-3.3c-0.4-1.1-1-2.2-1.9-3.1c-0.9-0.9-2-1.7-3.4-2.3S629.3,72.2,627,72.2z
			"/>
	</g>
</g>
<g>
	<path class="st0" d="M510,188.4c-0.3-0.3-0.4-0.6-0.4-1.1V142c0-0.5,0.1-0.8,0.4-1.1c0.3-0.3,0.6-0.4,1.1-0.4h1.2
		c0.5,0,0.8,0.1,1.1,0.4c0.3,0.3,0.4,0.6,0.4,1.1v45.3c0,0.5-0.1,0.8-0.4,1.1c-0.3,0.3-0.6,0.4-1.1,0.4h-1.2
		C510.6,188.8,510.3,188.6,510,188.4z"/>
	<path class="st0" d="M527.5,185.2c-2.6-2.8-4.1-6.6-4.5-11.4l-0.1-2.7l0.1-2.7c0.4-4.7,1.8-8.5,4.5-11.4c2.6-2.9,6.1-4.3,10.4-4.3
		c4.7,0,8.4,1.6,11,4.7c2.7,3.1,4,7.4,4,12.9v1c0,0.5-0.1,0.8-0.4,1.1c-0.3,0.3-0.7,0.4-1.1,0.4h-24.2v0.7c0.1,2.1,0.6,4.1,1.5,6
		c0.9,1.8,2.1,3.3,3.7,4.4c1.6,1.1,3.4,1.7,5.6,1.7c2.5,0,4.5-0.5,6.1-1.5c1.6-1,2.7-2,3.4-3c0.4-0.5,0.7-0.9,0.9-1s0.6-0.2,1.1-0.2
		h1.1c0.4,0,0.7,0.1,1,0.3c0.3,0.2,0.4,0.5,0.4,0.9c0,1-0.6,2.1-1.8,3.4c-1.2,1.3-2.9,2.5-5,3.5c-2.1,1-4.5,1.5-7.2,1.5
		C533.6,189.5,530.2,188,527.5,185.2z M548.8,169v-0.3c0-3.5-1-6.4-3-8.6c-2-2.3-4.6-3.4-7.9-3.4c-3.3,0-5.9,1.1-7.9,3.4
		c-1.9,2.3-2.9,5.1-2.9,8.6v0.3H548.8z"/>
	<path class="st0" d="M565.4,188.1c-1.9-0.9-3.3-2.1-4.5-3.7c-1.1-1.5-1.7-3.2-1.7-5.1c0-3,1.2-5.4,3.6-7.3c2.4-1.9,5.7-3.1,9.8-3.7
		l10.7-1.5v-2.4c0-2.5-0.8-4.4-2.3-5.7c-1.5-1.3-3.8-2-7-2c-2.3,0-4.2,0.5-5.7,1.4c-1.5,0.9-2.4,2-2.8,3.3c-0.2,0.5-0.4,0.9-0.6,1.1
		c-0.2,0.2-0.6,0.3-1,0.3h-1c-0.4,0-0.8-0.1-1.1-0.4c-0.3-0.3-0.4-0.6-0.4-1.1c0-1,0.5-2.2,1.4-3.5c0.9-1.3,2.3-2.5,4.2-3.5
		c1.9-1,4.2-1.5,7-1.5c4.8,0,8.3,1.2,10.3,3.5c2,2.3,3.1,5.1,3.1,8.4v22.6c0,0.5-0.1,0.8-0.4,1.1c-0.3,0.3-0.6,0.4-1.1,0.4H585
		c-0.5,0-0.8-0.1-1.1-0.4c-0.3-0.3-0.4-0.6-0.4-1.1v-3.2c-1,1.5-2.5,2.8-4.4,3.8c-1.9,1-4.5,1.6-7.6,1.6
		C569.3,189.5,567.3,189,565.4,188.1z M580.3,182.3c2.1-2.2,3.2-5.3,3.2-9.4v-2.3l-8.8,1.2c-3.7,0.5-6.5,1.4-8.4,2.6
		c-1.9,1.2-2.9,2.8-2.9,4.6c0,2.1,0.9,3.7,2.6,4.8c1.7,1.1,3.8,1.7,6.1,1.7C575.4,185.5,578.2,184.4,580.3,182.3z"/>
	<path class="st0" d="M598.8,188.4c-0.3-0.3-0.4-0.6-0.4-1.1V155c0-0.5,0.1-0.8,0.4-1.1c0.3-0.3,0.6-0.4,1.1-0.4h1.1
		c0.5,0,0.8,0.1,1.1,0.4c0.3,0.3,0.4,0.7,0.4,1.1v3.1c1.6-3.1,4.7-4.7,9.2-4.7h2.5c0.5,0,0.8,0.1,1.1,0.4c0.3,0.3,0.4,0.6,0.4,1.1v1
		c0,0.5-0.1,0.8-0.4,1.1c-0.3,0.3-0.6,0.4-1.1,0.4h-2.9c-2.7,0-4.9,0.8-6.5,2.4c-1.6,1.6-2.4,3.7-2.4,6.5v21.1
		c0,0.5-0.1,0.8-0.4,1.1c-0.3,0.3-0.7,0.4-1.1,0.4h-1.1C599.4,188.8,599.1,188.6,598.8,188.4z"/>
	<path class="st0" d="M622.5,188.4c-0.3-0.3-0.4-0.6-0.4-1.1v-32.4c0-0.5,0.1-0.8,0.4-1.1c0.3-0.3,0.6-0.4,1.1-0.4h1.2
		c0.5,0,0.8,0.1,1.1,0.4c0.3,0.3,0.4,0.6,0.4,1.1v3.2c1.4-1.8,2.9-3.1,4.7-4c1.7-0.9,4-1.4,6.8-1.4c4.4,0,7.9,1.4,10.3,4.2
		c2.4,2.8,3.6,6.5,3.6,11v19.3c0,0.5-0.1,0.8-0.4,1.1c-0.3,0.3-0.6,0.4-1.1,0.4h-1.2c-0.5,0-0.8-0.1-1.1-0.4
		c-0.3-0.3-0.4-0.6-0.4-1.1v-19c0-3.7-0.9-6.5-2.7-8.6c-1.8-2-4.4-3.1-7.7-3.1c-3.3,0-5.9,1-7.8,3.1c-2,2.1-2.9,4.9-2.9,8.5v19
		c0,0.5-0.1,0.8-0.4,1.1c-0.3,0.3-0.6,0.4-1.1,0.4h-1.2C623.1,188.8,622.7,188.6,622.5,188.4z"/>
</g>
</svg>
